<svg width="500" height="500" viewBox="0 0 500 500" fill="none" xmlns="http://www.w3.org/2000/svg">
<g clip-path="url(#clip0_66_26)">
<path d="M0 250C0 111.929 111.929 0 250 0V0C388.071 0 500 111.929 500 250V250C500 388.071 388.071 500 250 500V500C111.929 500 0 388.071 0 250V250Z" fill="white"/>
<rect width="500" height="500" rx="250" fill="white"/>
<g clip-path="url(#clip1_66_26)">
<path d="M377.945 91H122.055C104.904 91 91 104.904 91 122.055V377.945C91 395.096 104.904 409 122.055 409H377.945C395.096 409 409 395.096 409 377.945V122.055C409 104.904 395.096 91 377.945 91Z" fill="#3178C6"/>
<path d="M377.945 91H122.055C104.904 91 91 104.904 91 122.055V377.945C91 395.096 104.904 409 122.055 409H377.945C395.096 409 409 395.096 409 377.945V122.055C409 104.904 395.096 91 377.945 91Z" fill="#3178C6"/>
<path fill-rule="evenodd" clip-rule="evenodd" d="M287.849 344.049V375.141C292.903 377.732 298.881 379.675 305.783 380.971C312.685 382.266 319.958 382.914 327.605 382.914C335.058 382.914 342.137 382.202 348.844 380.776C355.551 379.351 361.432 377.003 366.487 373.732C371.541 370.461 375.543 366.186 378.491 360.906C381.44 355.627 382.914 349.101 382.914 341.328C382.914 335.692 382.072 330.753 380.387 326.511C378.702 322.268 376.272 318.495 373.096 315.191C369.921 311.888 366.114 308.924 361.675 306.3C357.236 303.677 352.23 301.199 346.657 298.868C342.575 297.183 338.913 295.548 335.673 293.961C332.433 292.373 329.679 290.754 327.411 289.103C325.142 287.451 323.393 285.702 322.162 283.856C320.931 282.009 320.315 279.921 320.315 277.588C320.315 275.451 320.866 273.524 321.967 271.807C323.069 270.091 324.624 268.617 326.633 267.386C328.642 266.156 331.104 265.2 334.02 264.52C336.937 263.84 340.177 263.5 343.741 263.5C346.333 263.5 349.071 263.695 351.954 264.083C354.838 264.471 357.738 265.071 360.655 265.88C363.571 266.69 366.405 267.71 369.16 268.941C371.914 270.172 374.457 271.597 376.79 273.216V244.164C372.06 242.351 366.892 241.007 361.286 240.132C355.681 239.258 349.249 238.82 341.991 238.82C334.604 238.82 327.605 239.614 320.995 241.201C314.386 242.788 308.57 245.265 303.547 248.634C298.525 252.002 294.556 256.294 291.64 261.508C288.724 266.722 287.266 272.957 287.266 280.212C287.266 289.475 289.939 297.378 295.285 303.92C300.631 310.462 308.747 316.001 319.635 320.535C323.911 322.284 327.897 324 331.591 325.685C335.284 327.369 338.476 329.118 341.165 330.932C343.854 332.745 345.976 334.721 347.532 336.859C349.087 338.996 349.865 341.425 349.865 344.146C349.865 346.154 349.379 348.016 348.407 349.733C347.435 351.449 345.96 352.939 343.984 354.202C342.008 355.465 339.545 356.453 336.597 357.165C333.648 357.878 330.197 358.234 326.244 358.234C319.505 358.234 312.83 357.052 306.22 354.688C299.61 352.324 293.486 348.778 287.849 344.049ZM235.578 267.442H275.465V241.926H164.289V267.442H203.981V381.051H235.578V267.442Z" fill="white"/>
</g>
</g>
<defs>
<clipPath id="clip0_66_26">
<path d="M0 250C0 111.929 111.929 0 250 0V0C388.071 0 500 111.929 500 250V250C500 388.071 388.071 500 250 500V500C111.929 500 0 388.071 0 250V250Z" fill="white"/>
</clipPath>
<clipPath id="clip1_66_26">
<rect width="318" height="318" fill="white" transform="translate(91 91)"/>
</clipPath>
</defs>
</svg>
