<svg width="500" height="500" viewBox="0 0 500 500" fill="none" xmlns="http://www.w3.org/2000/svg">
<path d="M0 250C0 111.929 111.929 0 250 0V0C388.071 0 500 111.929 500 250V250C500 388.071 388.071 500 250 500V500C111.929 500 0 388.071 0 250V250Z" fill="white"/>
<g clip-path="url(#clip0_66_7)">
<path d="M112.926 131.948L112.97 135.422C112.994 137.332 118.528 200.581 125.269 275.974L137.524 413.054L192.607 428.476C222.903 436.958 248.315 443.941 249.079 443.995C249.843 444.048 275.591 437.136 306.298 428.634C355.528 415.002 362.174 412.949 362.527 411.262C363.018 408.911 387.126 136.942 387.102 134.032L387.084 131.948H250.004H112.926Z" fill="white"/>
<path d="M193.043 429.399L137.471 413.865L136.745 409.755C136.099 406.101 112 136.939 112 133.382C112 132.095 126.071 131.949 250.005 131.949C380.826 131.949 388.01 132.034 388 133.57C387.956 140.206 363.012 412.933 362.399 413.475C361.624 414.161 254.063 444.128 250.468 444.659C249.45 444.809 223.608 437.942 193.043 429.399ZM285.047 374.512C303.725 369.36 319.278 364.88 319.607 364.555C319.936 364.23 322.122 342.083 324.464 315.339C326.806 288.595 328.959 264.941 329.248 262.776L329.773 258.84H289.426H249.079V275.975V293.11H270.863H292.646L292.213 295.194C291.975 296.34 291.048 306.19 290.154 317.082C289.207 328.624 288.084 337.332 287.463 337.953C286.876 338.539 278 341.257 267.738 343.993L249.079 348.966V366.422C249.079 378.337 249.398 383.878 250.082 383.878C250.634 383.878 266.368 379.663 285.047 374.512ZM329.242 237.306C328.63 232.767 323.176 171.895 323.176 169.599C323.176 168.205 319.97 168.071 286.591 168.071H250.005V185.989V203.907L266.446 204.541C275.488 204.889 285.004 205.42 287.592 205.719L292.299 206.264L293.441 220.28C294.069 227.988 294.818 235.858 295.105 237.769L295.626 241.242H312.7H329.773L329.242 237.306Z" fill="#EAEBEC"/>
<path d="M192.607 428.476L137.524 413.054L125.269 275.975C118.528 200.581 112.994 137.333 112.97 135.423L112.926 131.949H250.005H387.084L387.102 134.033C387.127 136.943 363.018 408.912 362.527 411.263C362.174 412.95 355.529 415.003 306.298 428.635C275.592 437.137 249.843 444.049 249.079 443.996C248.315 443.942 222.903 436.958 192.607 428.476ZM285.089 375.167C304.13 369.873 319.979 365.104 320.31 364.57C320.64 364.036 322.915 340.757 325.364 312.84C327.814 284.923 330.019 261.352 330.265 260.461C330.686 258.929 327.446 258.84 271.557 258.84H212.403L214.921 232.211C216.306 217.566 217.473 205.545 217.514 205.499C217.555 205.452 226.237 205.175 236.807 204.883C254.139 204.404 289.882 205.787 291.078 206.983C291.525 207.429 294.463 236.263 294.463 240.199C294.463 242.139 294.725 242.168 312.411 242.168H330.358L329.935 238.232C329.703 236.067 328.182 219.291 326.557 200.952L323.601 167.608L254.386 167.371C199.321 167.182 185.169 167.371 185.163 168.297C185.158 168.937 184.755 173.003 184.266 177.334C183.083 187.811 174.056 289.05 174.056 291.846V294.036H232.952H291.848L291.323 297.509C291.034 299.42 290.118 309.11 289.288 319.044C288.458 328.977 287.511 337.361 287.185 337.675C286.322 338.503 251.674 347.759 249.514 347.739C248.511 347.729 239.562 345.497 229.629 342.777L211.568 337.834L210.905 330.059C210.541 325.784 209.987 319.68 209.674 316.497L209.105 310.708H191.58H174.056L174.095 314.181C174.167 320.677 178.38 364.429 178.991 365.041C179.699 365.748 247.007 384.668 249.079 384.742C249.843 384.77 266.048 380.461 285.089 375.167Z" fill="#F0BE25"/>
<path d="M192.607 428.476L137.524 413.054L125.269 275.975C118.528 200.581 112.994 137.333 112.97 135.423L112.926 131.949H250.005H387.084L387.102 134.033C387.127 136.943 363.018 408.912 362.527 411.263C362.174 412.95 355.529 415.003 306.298 428.635C275.592 437.137 249.843 444.049 249.079 443.996C248.315 443.942 222.903 436.958 192.607 428.476ZM295.329 407.844C319.56 401.158 339.84 395.219 340.396 394.646C341.262 393.754 362.189 164.399 362.105 156.725L362.077 154.178H306.041H250.005V160.662V167.145H217.588C192.276 167.145 185.169 167.399 185.163 168.303C185.158 168.94 184.755 173.003 184.266 177.334C183.083 187.811 174.056 289.05 174.056 291.846V294.036H212.031H250.005V320.896C250.005 341.776 249.748 347.752 248.848 347.739C248.211 347.729 239.562 345.497 229.629 342.777L211.568 337.834L210.905 330.059C210.541 325.784 209.987 319.68 209.674 316.497L209.105 310.708H191.58H174.056L174.095 314.181C174.206 324.116 178.504 364.668 179.512 365.291C180.124 365.67 196.236 370.299 215.315 375.579L250.005 385.178V402.589C250.005 412.166 250.291 420.001 250.64 420.001C250.988 420.001 271.099 414.53 295.329 407.844ZM214.824 232.46C216.155 217.952 217.426 205.917 217.648 205.716C217.87 205.515 225.241 205.152 234.028 204.909L250.005 204.467V231.653V258.84H231.204H212.403L214.824 232.46Z" fill="#E4A126"/>
<path d="M199.99 99.0688V90.2698H212.494H224.997V73.1349V56H233.796H242.595V81.9339V107.868H221.293H199.99V99.0688ZM250.931 100.921V93.9746H262.509C268.877 93.9746 274.087 93.7392 274.087 93.4515C274.087 93.1638 268.877 87.282 262.509 80.3807L250.931 67.833V61.9165V56H275.013H299.094V62.9181V69.8361L287.789 70.0962L276.484 70.3563L288.252 83.0298L300.02 95.7033V101.786V107.868H275.476H250.931V100.921Z" fill="#0E0E0F"/>
</g>
<defs>
<clipPath id="clip0_66_7">
<rect width="276" height="388.661" fill="white" transform="translate(112 56)"/>
</clipPath>
</defs>
</svg>
