<svg width="500" height="500" viewBox="0 0 500 500" fill="none" xmlns="http://www.w3.org/2000/svg">
<path d="M0 250C0 111.929 111.929 0 250 0V0C388.071 0 500 111.929 500 250V250C500 388.071 388.071 500 250 500V500C111.929 500 0 388.071 0 250V250Z" fill="white"/>
<path d="M430.89 233.706L266.288 69.1097C256.815 59.6301 241.44 59.6301 231.955 69.1097L197.774 103.291L241.134 146.651C251.21 143.246 262.764 145.53 270.796 153.562C278.866 161.646 281.134 173.299 277.647 183.408L319.434 225.197C329.543 221.714 341.208 223.967 349.283 232.055C360.568 243.336 360.568 261.619 349.283 272.907C337.995 284.197 319.712 284.197 308.418 272.907C299.93 264.41 297.833 251.943 302.13 241.486L263.16 202.516L263.156 305.069C265.981 306.466 268.561 308.311 270.796 310.533C282.081 321.813 282.081 340.098 270.796 351.395C259.508 362.679 241.216 362.679 229.945 351.395C218.66 340.098 218.66 321.815 229.945 310.534C232.649 307.828 235.863 305.686 239.401 304.23V200.721C235.858 199.274 232.642 197.13 229.945 194.416C221.394 185.877 219.339 173.332 223.72 162.833L180.977 120.085L68.1129 232.944C58.629 242.433 58.629 257.809 68.1129 267.29L232.718 431.889C242.194 441.37 257.566 441.37 267.054 431.889L430.889 268.055C440.37 258.57 440.371 243.185 430.89 233.706Z" fill="#DE4C36"/>
</svg>
